<?xml version="1.0" encoding="iso-8859-1"?>
<!-- Generator: Adobe Illustrator 22.0.1, SVG Export Plug-In . SVG Version: 6.00 Build 0)  -->
<svg version="1.1" id="BandCamp" xmlns="http://www.w3.org/2000/svg" xmlns:xlink="http://www.w3.org/1999/xlink" x="0px" y="0px"
	 viewBox="0 0 218.625 218.624" style="enable-background:new 0 0 218.625 218.624;" xml:space="preserve">
<circle style="fill:none;stroke:#F3EFE0;stroke-width:5.358;stroke-miterlimit:10;" cx="109.312" cy="109.312" r="106.633"/>
<path fill="#F3EFE0" d="M34.074,133.581c0.528-0.979,1.02-1.896,1.515-2.81c1.731-3.196,3.463-6.392,5.195-9.588
	c2.518-4.647,5.038-9.294,7.556-13.941c3.679-6.792,7.357-13.584,11.035-20.376c0.38-0.702,0.771-1.398,1.137-2.106
	c0.11-0.213,0.228-0.295,0.478-0.294c2.121,0.012,4.242,0.007,6.363,0.007c19.101,0,38.201,0,57.302,0c0.153,0,0.307,0,0.494,0
	c0,6.071,0,12.115,0,18.24c0.106-0.101,0.166-0.139,0.201-0.193c1.929-2.92,4.686-4.687,8.075-5.205
	c5.259-0.804,9.913,0.574,13.595,4.58c1.878,2.043,3.057,4.491,3.738,7.16c1.414,5.538,1.262,11.018-0.826,16.379
	c-1.043,2.677-2.649,4.968-4.99,6.689c-2.03,1.492-4.322,2.284-6.825,2.461c-2.502,0.176-4.971-0.016-7.366-0.807
	c-2.563-0.846-4.564-2.382-5.806-4.824c-0.02-0.039-0.042-0.079-0.067-0.115c-0.011-0.016-0.034-0.024-0.104-0.069
	c0,1.649,0,3.265,0,4.899c-2.433,0-4.815,0-7.221,0c0-16.296,0-32.573,0-48.953c-0.102,0.14-0.155,0.197-0.192,0.264
	c-2.096,3.869-4.188,7.739-6.284,11.608c-2.497,4.608-4.997,9.215-7.494,13.823c-2.26,4.171-4.516,8.344-6.774,12.515
	c-1.879,3.469-3.76,6.937-5.634,10.409c-0.105,0.195-0.227,0.252-0.442,0.252c-18.779-0.005-37.558-0.005-56.336-0.005
	C34.309,133.581,34.221,133.581,34.074,133.581z M124.882,116.019c0.016,0.341,0.028,0.897,0.071,1.449
	c0.169,2.178,0.662,4.268,1.721,6.2c2.383,4.349,6.694,5.474,10.631,4.346c2.485-0.712,4.122-2.437,5.22-4.715
	c0.873-1.812,1.288-3.744,1.439-5.739c0.203-2.678-0.054-5.297-1.022-7.82c-0.72-1.877-1.761-3.541-3.388-4.765
	c-2.474-1.861-5.235-2.063-8.1-1.201c-2.586,0.779-4.244,2.613-5.292,5.039C125.198,111.044,124.919,113.403,124.882,116.019z"/>
<path fill="#F3EFE0" d="M187.234,109.979c-2.564,0-5.081,0-7.566,0c-0.193-0.691-0.325-1.381-0.576-2.026c-1.059-2.725-3.13-4.166-5.973-4.551
	c-1.653-0.224-3.281-0.077-4.843,0.548c-2.405,0.962-3.892,2.794-4.811,5.145c-0.615,1.573-0.912,3.219-1.045,4.895
	c-0.173,2.179-0.119,4.348,0.376,6.49c0.357,1.546,0.903,3.015,1.802,4.335c1.701,2.499,4.086,3.687,7.088,3.586
	c3.579-0.12,6.171-2.146,7.356-5.713c0.254-0.765,0.413-1.561,0.624-2.377c2.478,0,5.001,0,7.604,0
	c-0.213,0.956-0.386,1.88-0.626,2.786c-0.648,2.442-1.688,4.695-3.342,6.631c-2.028,2.375-4.608,3.834-7.645,4.47
	c-3.641,0.763-7.249,0.639-10.746-0.705c-4.303-1.653-7.118-4.791-8.771-9.032c-0.899-2.308-1.319-4.716-1.404-7.185
	c-0.109-3.154,0.225-6.252,1.264-9.249c1.138-3.283,2.986-6.062,5.855-8.09c2.071-1.463,4.391-2.309,6.891-2.652
	c3.076-0.422,6.117-0.246,9.084,0.714c2.936,0.949,5.386,2.59,7.136,5.177c1.191,1.76,1.864,3.718,2.152,5.815
	C187.162,109.312,187.194,109.632,187.234,109.979z"/>
</svg>
