<?xml version="1.0" encoding="utf-8"?>
<!-- Generator: Adobe Illustrator 18.0.0, SVG Export Plug-In . SVG Version: 6.00 Build 0)  -->
<!DOCTYPE svg PUBLIC "-//W3C//DTD SVG 1.1//EN" "http://www.w3.org/Graphics/SVG/1.1/DTD/svg11.dtd">
<svg version="1.1" id="Layer_1" xmlns="http://www.w3.org/2000/svg" xmlns:xlink="http://www.w3.org/1999/xlink" x="0px" y="0px"
	 viewBox="-1.8 -1.8 1083.5 1083.5" enable-background="new -1.8 -1.8 1083.5 1083.5" xml:space="preserve">
<g id="_x23_Instagram">
	<g id="Circle_flat">
		<circle fill="none" stroke="#F3EFE0" stroke-width="30" stroke-miterlimit="10" cx="540" cy="540" r="526.8"/>
		<g>
			<path fill="#F3EFE0" d="M263.9,656.8c0-73.9,0-147.7,0-221.6c0.9-6.3,2.2-12.6,2.6-19c4.2-71.5,49.6-125.5,118.9-140.5
				c14.7-3.2,29.8-4.5,44.7-6.7c73.9,0,147.7,0,221.6,0c5.9,0.9,11.7,2.2,17.6,2.5c82.1,4.5,143.3,63.7,145.3,145.6
				c2.2,86.2,2.2,172.5-0.1,258.7c-2.2,80.5-63.2,141.6-143.7,143.7c-86.6,2.3-173.4,2.1-260.1,0c-71.6-1.7-126-49.9-140.4-119.2
				C267.3,686.1,266,671.3,263.9,656.8z M541,770.6c0,0,0-0.1,0-0.1c40.6,0,81.2,0.9,121.8-0.4c33.1-1.1,62.4-12.4,82.7-40.6
				c13.6-19,19.6-40.9,19.7-63.8c0.6-78.9,1.5-157.8,0-236.6c-1.3-67.6-39.1-105.9-106.3-107.4c-78.4-1.7-156.9-1.8-235.2,0
				c-67.9,1.5-105.6,39.1-107.1,106.5c-1.7,78.8-1.7,157.8,0,236.6c1.4,65.6,40,103.3,105.4,105.5
				C461.6,771.7,501.3,770.6,541,770.6z"/>
			<path fill="#F3EFE0" d="M539.6,688c-79.4-0.8-141.8-64.4-140.9-143.5c1-79.4,64.7-141.6,143.9-140.5c78.8,1.1,140.6,64.1,140.2,142.8
				C682.3,626.1,618.7,688.7,539.6,688z M632.6,546.2c0.1-51.6-40.4-92.1-91.9-92.1c-51.5,0-91.8,40.6-91.7,92.2
				c0.1,50.8,40.4,91.2,91.2,91.4C591.7,638,632.5,597.6,632.6,546.2z"/>
			<path fill="#F3EFE0" d="M688.3,365.2c19-0.1,33.2,13.9,33.2,32.8c0.1,18.5-14.7,33.6-32.9,33.7c-17.9,0.1-33.6-15.5-33.7-33.3
				C654.8,380.2,669.8,365.3,688.3,365.2z"/>
		</g>
	</g>
</g>
<g id="Layer_1_1_">
</g>
</svg>
