<?xml version="1.0" encoding="utf-8"?>
<!-- Generator: Adobe Illustrator 18.0.0, SVG Export Plug-In . SVG Version: 6.00 Build 0)  -->
<!DOCTYPE svg PUBLIC "-//W3C//DTD SVG 1.1//EN" "http://www.w3.org/Graphics/SVG/1.1/DTD/svg11.dtd">
<svg version="1.1" id="Layer_1" xmlns="http://www.w3.org/2000/svg" xmlns:xlink="http://www.w3.org/1999/xlink" x="0px" y="0px"
	 viewBox="-1.8 -1.8 1083.5 1083.5" enable-background="new -1.8 -1.8 1083.5 1083.5" xml:space="preserve">
<circle id="XMLID_10_" fill="none" stroke="#F3EFE0" stroke-width="30" stroke-miterlimit="10" cx="540" cy="540" r="526.8"/>
<g id="MAIL_8_">
	<g>
		<path fill="#F3EFE0" d="M813.5,352.8c-4.7-4.2-10.8-6.9-17.7-6.9H284.1c-6.8,0-13,2.6-17.7,6.9L540,580.7L813.5,352.8z
			 M265.6,353.5c-4.9,4.8-7.9,11.5-7.9,18.8v335.3c0,7,2.7,13.2,7.1,18l172.7-205.5L265.6,353.5z M814.4,353.5L642.5,520.1
			l172.6,205.5c4.4-4.7,7.1-11,7.1-18V372.4C822.3,365,819.3,358.3,814.4,353.5z M540,619.4L456.3,540L266,726.8
			c4.7,4.5,11.1,7.3,18.1,7.3h511.7c7,0,13.4-2.8,18.1-7.3l-190.5-191L540,619.4z"/>
	</g>
</g>
</svg>
