<?xml version="1.0" encoding="utf-8"?>
<!-- Generator: Adobe Illustrator 18.0.0, SVG Export Plug-In . SVG Version: 6.00 Build 0)  -->
<!DOCTYPE svg PUBLIC "-//W3C//DTD SVG 1.1//EN" "http://www.w3.org/Graphics/SVG/1.1/DTD/svg11.dtd">
<svg version="1.1" id="Layer_1" xmlns="http://www.w3.org/2000/svg" xmlns:xlink="http://www.w3.org/1999/xlink" x="0px" y="0px"
	 viewBox="-1.8 -1.8 1083.5 1083.5" enable-background="new -1.8 -1.8 1083.5 1083.5" xml:space="preserve">
<g id="_x23_Spotify">
	<g id="Circle_flat">
		<circle fill="none" stroke="#F3EFE0" stroke-width="30" stroke-miterlimit="10" cx="540" cy="540" r="526.8"/>
		<g id="spotify_2_">
			<path fill="#F3EFE0" d="M460.5,313c137.2,4.3,268.8,23.7,389.5,90.2c20.8,11.5,35.9,26.8,30.5,52.2c-7.1,33.5-38.9,46.4-70.9,28.7
				c-61.2-33.9-126.7-54.2-195.3-65.9C494,397.4,374.6,399.3,256,430.5c-33.2,8.8-62.4-17-57.1-49.9c3.3-20.4,16.4-31.9,36.1-37.7
				C309.4,320.9,385.7,315.7,460.5,313z"/>
			<path fill="#F3EFE0" d="M449.8,479.4c119.9,0.7,233.7,25.7,338.5,86.1c22.9,13.2,31.5,35.3,21.3,54.5c-10.4,19.6-33.3,24.8-56.6,12
				c-149.1-81.6-306.2-96-469.4-54.5c-18.8,4.8-33.5,2.4-45.1-12.4c-9.5-12.2-11.1-26.4-3.4-40.3c5.9-10.7,15.6-16.6,27.7-20
				C324,487.2,386.1,478.3,449.8,479.4z"/>
			<path fill="#F3EFE0" d="M447.2,636.3c105.5-2.3,199.6,19.6,286.1,71c23.2,13.8,28,33.3,12.5,49.4c-11.4,11.8-24.6,13.5-38.9,4.9
				c-91.6-55.6-192.2-69.8-297-63.8c-39.6,2.3-78.7,9-117.3,17.7c-20.8,4.7-35.9-1.4-40.8-22.3c-4.7-20,6.3-31.7,25.6-36.2
				C335.1,643.4,393.3,634.7,447.2,636.3z"/>
		</g>
	</g>
</g>
<g id="Layer_1_1_">
</g>
</svg>
