<?xml version="1.0" encoding="utf-8"?>
<!-- Generator: Adobe Illustrator 18.0.0, SVG Export Plug-In . SVG Version: 6.00 Build 0)  -->
<!DOCTYPE svg PUBLIC "-//W3C//DTD SVG 1.1//EN" "http://www.w3.org/Graphics/SVG/1.1/DTD/svg11.dtd">
<svg version="1.1" id="Layer_1" xmlns="http://www.w3.org/2000/svg" xmlns:xlink="http://www.w3.org/1999/xlink" x="0px" y="0px"
	 viewBox="-1.8 -1.8 1083.5 1083.5" enable-background="new -1.8 -1.8 1083.5 1083.5" xml:space="preserve">
<circle id="circle_3_" fill="none" stroke="#F3EFE0" stroke-width="30" stroke-miterlimit="10" cx="540" cy="540" r="526.8"/>
<path id="Youtubeplaybutton_1_" fill="#F3EFE0" d="M531.2,337.1c69.4,2.3,141,4.2,212.5,7.3c55.9,2.4,83.3,28,90.5,84.1
	c8.9,69.1,8.7,138.6,3.4,208c-1.7,22.1-5.3,44.3-11.2,65.6c-8.6,31.1-31,49.3-62.9,52.9c-30.2,3.4-60.7,5.7-91.1,5.6
	c-111-0.4-222.1-0.6-333-3.8c-61.2-1.8-85.9-25.9-93.4-86.6c-10-81.1-9.9-162.6,0.9-243.7c2.1-16.1,8.2-32.8,16.3-46.9
	c14.3-24.7,39-33.7,66.5-34.9C396.2,342,462.6,339.6,531.2,337.1z M478.7,632.9c52.8-28.5,104.2-56.2,157.5-85
	c-53.6-27.8-104.9-54.5-157.5-81.8C478.7,522.7,478.7,576.8,478.7,632.9z"/>
<g id="Layer_1_1_">
</g>
</svg>
